<svg width="20" height="20" viewBox="0 0 20 20" fill="none" xmlns="http://www.w3.org/2000/svg">
<path d="M10 1.875C12.1549 1.875 14.2215 2.73102 15.7452 4.25476C17.269 5.77849 18.125 7.84512 18.125 10C18.125 12.1549 17.269 14.2215 15.7452 15.7452C14.2215 17.269 12.1549 18.125 10 18.125C7.84512 18.125 5.77849 17.269 4.25476 15.7452C2.73102 14.2215 1.875 12.1549 1.875 10C1.875 7.84512 2.73102 5.77849 4.25476 4.25476C5.77849 2.73102 7.84512 1.875 10 1.875ZM10 20C12.6522 20 15.1957 18.9464 17.0711 17.0711C18.9464 15.1957 20 12.6522 20 10C20 7.34784 18.9464 4.8043 17.0711 2.92893C15.1957 1.05357 12.6522 0 10 0C7.34784 0 4.8043 1.05357 2.92893 2.92893C1.05357 4.8043 0 7.34784 0 10C0 12.6522 1.05357 15.1957 2.92893 17.0711C4.8043 18.9464 7.34784 20 10 20ZM14.4141 8.16406C14.7812 7.79688 14.7812 7.20313 14.4141 6.83984C14.0469 6.47656 13.4531 6.47266 13.0898 6.83984L8.75391 11.1758L6.91797 9.33984C6.55078 8.97266 5.95703 8.97266 5.59375 9.33984C5.23047 9.70703 5.22656 10.3008 5.59375 10.6641L8.09375 13.1641C8.46094 13.5312 9.05469 13.5312 9.41797 13.1641L14.4141 8.16406Z" fill="#428F7D"/>
</svg>
