<svg width="20" height="20" viewBox="0 0 20 20" fill="none" xmlns="http://www.w3.org/2000/svg">
<path d="M9.5 2.15625C9.78125 1.96875 10.1875 1.96875 10.4688 2.15625L15.8438 5.21875L16 5.25V5.28125L17.4688 6.15625C17.875 6.375 18.0625 6.84375 17.9688 7.28125C17.8438 7.71875 17.4375 8.03125 17 8.03125L3 8C2.53125 8 2.125 7.71875 2.03125 7.28125C1.90625 6.84375 2.09375 6.375 2.5 6.15625L4 5.28125V5.25L4.125 5.21875L9.5 2.15625ZM4 9H6V15H7.25V9H9.25V15H10.75V9H12.75V15H14V9H16V15.1562C16 15.1562 16.0312 15.1562 16.0312 15.1875L17.5312 16.1875C17.9062 16.4375 18.0625 16.875 17.9375 17.3125C17.8125 17.7188 17.4375 18 17 18H3C2.53125 18 2.15625 17.7188 2.03125 17.3125C1.90625 16.875 2.0625 16.4375 2.4375 16.1875L3.9375 15.1875C3.9375 15.1562 3.96875 15.1562 4 15.1562V9Z" fill="#FFFFFF"/>
</svg>
