<svg width="40" height="40" viewBox="0 0 40 40" fill="none" xmlns="http://www.w3.org/2000/svg">
<path d="M15.0752 33.463V32.0654H15.8018C16.0928 32.0654 16.3047 32.127 16.4375 32.25C16.5703 32.3711 16.6367 32.541 16.6367 32.7598C16.6367 32.875 16.6172 32.9766 16.5781 33.0645C16.541 33.1523 16.4883 33.2256 16.4199 33.2842C16.3535 33.3427 16.2734 33.3877 16.1797 33.419C16.0879 33.4484 15.9863 33.463 15.875 33.463H15.0752Z" fill="#0D46A8"/>
<path d="M18.8018 33.463V32.0654H19.584C19.873 32.0654 20.084 32.127 20.2168 32.25C20.3496 32.373 20.416 32.5449 20.416 32.7656C20.416 32.8809 20.3965 32.9824 20.3574 33.0703C20.3203 33.1562 20.2676 33.2285 20.1992 33.2871C20.1328 33.3457 20.0527 33.3897 19.959 33.419C19.8672 33.4484 19.7656 33.463 19.6543 33.463H18.8018Z" fill="#0D46A8"/>
<path d="M24.6289 35.3994C24.4414 35.495 24.2314 35.543 23.999 35.543C23.7666 35.543 23.5586 35.495 23.375 35.3994C23.1934 35.3037 23.0361 35.1857 22.9033 35.045C22.7725 34.9024 22.667 34.7247 22.5869 34.5117C22.5068 34.297 22.4668 34.0527 22.4668 33.7794C22.4668 33.545 22.5029 33.3213 22.5752 33.1084C22.6475 32.8936 22.75 32.7061 22.8828 32.5459C23.0156 32.3838 23.1768 32.2549 23.3662 32.1592C23.5557 32.0635 23.7666 32.0156 23.999 32.0156C24.2021 32.0156 24.3975 32.0586 24.585 32.1445C24.7725 32.2285 24.9365 32.3486 25.0771 32.5049C25.2197 32.6611 25.3301 32.8525 25.4082 33.0791C25.4883 33.3037 25.5283 33.537 25.5283 33.7794C25.5283 34.0157 25.4922 34.2404 25.4199 34.453C25.3477 34.666 25.2451 34.8537 25.1123 35.0157C24.9795 35.1757 24.8184 35.3037 24.6289 35.3994Z" fill="#0D46A8"/>
<path fill-rule="evenodd" clip-rule="evenodd" d="M11.5 30H28.5V38H11.5V30ZM15.875 31.5586H14.0791V32.0654H14.501V35.496H14.0791V36H15.5205V35.496H15.0752V33.9433H15.8633C16.0703 33.9433 16.2578 33.912 16.4258 33.8497C16.5957 33.787 16.7412 33.702 16.8623 33.5947C16.9834 33.4873 17.0771 33.3623 17.1436 33.2197C17.21 33.0752 17.2432 32.9219 17.2432 32.7598C17.2432 32.5645 17.209 32.3916 17.1406 32.2412C17.0742 32.0908 16.9795 31.9658 16.8564 31.8662C16.7354 31.7646 16.5908 31.6885 16.4229 31.6377C16.2568 31.585 16.0742 31.5586 15.875 31.5586ZM19.6543 31.5586H17.8057V32.0654H18.2275V35.496H17.8057V36H19.2471V35.496H18.8018V33.9433H19.373C19.5879 33.9433 19.7568 34.001 19.8799 34.1163C20.0049 34.2297 20.0977 34.4073 20.1582 34.6493L20.4893 36H21.3535L21.3477 35.4433H20.9639L20.7178 34.4767C20.6963 34.3927 20.667 34.3147 20.6299 34.2423C20.5947 34.168 20.5547 34.1027 20.5098 34.046C20.4668 33.9873 20.4199 33.9387 20.3691 33.8993C20.3203 33.8583 20.2715 33.827 20.2227 33.8057C20.3379 33.7667 20.4443 33.711 20.542 33.6387C20.6396 33.5663 20.7236 33.4843 20.7939 33.3927C20.8662 33.2988 20.9219 33.1982 20.9609 33.0908C21.002 32.9814 21.0225 32.8711 21.0225 32.7598C21.0225 32.5645 20.9883 32.3916 20.9199 32.2412C20.8516 32.0908 20.7559 31.9658 20.6328 31.8662C20.5117 31.7646 20.3672 31.6885 20.1992 31.6377C20.0332 31.585 19.8516 31.5586 19.6543 31.5586ZM23.1582 35.918C23.4121 36.0313 23.6924 36.088 23.999 36.088C24.3115 36.088 24.5977 36.0283 24.8574 35.9093C25.1191 35.788 25.3438 35.623 25.5312 35.414C25.7207 35.205 25.8672 34.961 25.9707 34.6817C26.0762 34.4003 26.1289 34.0997 26.1289 33.7793C26.1289 33.459 26.0771 33.1582 25.9736 32.877C25.8701 32.5957 25.7246 32.3516 25.5371 32.1445C25.3496 31.9355 25.125 31.7715 24.8633 31.6523C24.6016 31.5312 24.3135 31.4707 23.999 31.4707C23.6865 31.4707 23.3994 31.5312 23.1377 31.6523C22.8779 31.7715 22.6533 31.9355 22.4639 32.1445C22.2764 32.3516 22.1299 32.5957 22.0244 32.877C21.9209 33.1582 21.8691 33.459 21.8691 33.7793C21.8691 34.0897 21.9209 34.3897 22.0244 34.6787C22.1279 34.9677 22.2793 35.2177 22.4785 35.4287C22.6777 35.6397 22.9043 35.8027 23.1582 35.918Z" fill="#0D46A8"/>
<path fill-rule="evenodd" clip-rule="evenodd" d="M14 6H21.2556C22.0559 6 22.794 6.11287 23.4684 6.3411C23.8857 6.47573 24.2691 6.65207 24.6179 6.87053C25.154 7.09277 25.634 7.39 26.0536 7.76463C26.5982 8.23563 27.0154 8.82513 27.3052 9.52413C27.6062 10.2312 27.75 11.0285 27.75 11.9051C27.75 12.6559 27.6053 13.3709 27.3149 14.0449L27.3139 14.0473C27.0243 14.7102 26.6151 15.2912 26.0903 15.7876C25.5635 16.2859 24.9365 16.674 24.2171 16.9563C23.4931 17.2434 22.6957 17.3826 21.8313 17.3826H19.2308V22.4983H20.0612V22.8523H20.9807V26H14.3239V25.0242H14V22.4983H15.6578V9.51393H14.3239V8.53817H14V6ZM14.8202 8.53817V8.9958H15.6578V8.53817H14.8202ZM14.8202 25.0242V25.4819H20.4844V23.3705H20.0612V25.0242H14.8202ZM18.7345 22.4983V16.8644H21.8313C22.6448 16.8644 23.3816 16.7335 24.0417 16.4716C24.7094 16.2097 25.2812 15.8537 25.757 15.4036C26.2329 14.9535 26.6013 14.4298 26.8622 13.8324C27.1232 13.2268 27.2537 12.5843 27.2537 11.9051C27.2537 11.0867 27.1193 10.3625 26.8507 9.73233C26.7108 9.3944 26.5388 9.08707 26.3349 8.81033C26.3612 8.86743 26.3865 8.9254 26.4108 8.98423C26.6924 9.64513 26.8305 10.3986 26.8305 11.2402C26.8305 11.9481 26.6943 12.6196 26.4216 13.2525L26.4212 13.2535C26.1488 13.8771 25.7641 14.4237 25.2686 14.8923C24.7724 15.3617 24.1786 15.7306 23.4902 16.0006C22.8045 16.2726 22.0435 16.4068 21.2096 16.4068H18.3113V22.4983H18.7345ZM23.2651 13.2826L23.2662 13.2816C23.5102 13.0586 23.7002 12.7786 23.8351 12.4377L23.8358 12.436L23.8366 12.4342C23.9772 12.0967 24.0503 11.7003 24.0503 11.2402C24.0503 10.9279 24.0187 10.6439 23.9565 10.387C23.8939 10.3009 23.8248 10.2215 23.7495 10.1483L23.748 10.1469L23.7466 10.1455C23.3583 9.76197 22.678 9.51393 21.5895 9.51393H19.2308V13.9791H21.2556C21.6749 13.9791 22.0524 13.9204 22.3902 13.8056C22.7353 13.6828 23.0254 13.5081 23.264 13.2836L23.2651 13.2826ZM18.7345 13.9791V8.9958H21.5895C22.3071 8.9958 22.9022 9.0973 23.375 9.30027C23.3605 9.2853 23.3457 9.27053 23.3307 9.25593L23.3296 9.25483C22.8611 8.79207 22.0894 8.53817 20.9678 8.53817H18.3113V13.9791H18.7345Z" fill="#0D46A8"/>
</svg>
