<svg fill="none" height="40" viewBox="0 0 40 40" width="40" xmlns="http://www.w3.org/2000/svg"><g fill="#0d46a8"><path clip-rule="evenodd" d="m13 5h7.2556c.8003 0 1.5384.11287 2.2128.3411.4173.13463.8007.31097 1.1495.52943.5361.22224 1.0161.51947 1.4357.8941.5446.471.9618 1.0605 1.2516 1.7595.301.70707.4448 1.50437.4448 2.38097 0 .7508-.1447 1.4658-.4351 2.1398l-.001.0024c-.2896.6629-.6988 1.2439-1.2236 1.7403-.5268.4983-1.1538.8864-1.8732 1.1687-.724.2871-1.5214.4263-2.3858.4263h-2.6005v5.1157h.8304v.354h.9195v3.1477h-6.6568v-.9758h-.3239v-2.5259h1.6578v-12.98437h-1.3339v-.97576h-.3239zm.8202 2.53817v.45763h.8376v-.45763zm0 16.48603v.4577h5.6642v-2.1114h-.4232v1.6537zm3.9143-2.5259v-5.6339h3.0968c.8135 0 1.5503-.1309 2.2104-.3928.6677-.2619 1.2395-.6179 1.7153-1.068.4759-.4501.8443-.9738 1.1052-1.5712.261-.6056.3915-1.2481.3915-1.9273 0-.8184-.1344-1.5426-.403-2.17277-.1399-.33793-.3119-.64526-.5158-.922.0263.0571.0516.11507.0759.1739.2816.6609.4197 1.41437.4197 2.25597 0 .7079-.1362 1.3794-.4089 2.0123l-.0004.001c-.2724.6236-.6571 1.1702-1.1526 1.6388-.4962.4694-1.09.8383-1.7784 1.1083-.6857.272-1.4467.4062-2.2806.4062h-2.8983v6.0915zm4.5306-9.2157.0011-.001c.244-.223.434-.503.5689-.8439l.0007-.0017.0008-.0018c.1406-.3375.2137-.7339.2137-1.194 0-.3123-.0316-.5963-.0938-.8532-.0626-.0861-.1317-.1655-.207-.2387l-.0015-.0014-.0014-.0014c-.3883-.38353-1.0686-.63157-2.1571-.63157h-2.3587v4.46517h2.0248c.4193 0 .7968-.0587 1.1346-.1735.3451-.1228.6352-.2975.8738-.522zm-4.5306.6965v-4.9833h2.855c.7176 0 1.3127.1015 1.7855.30447-.0145-.01497-.0293-.02974-.0443-.04434l-.0011-.0011c-.4685-.46276-1.2402-.71666-2.3618-.71666h-2.6565v5.44093z" fill-rule="evenodd"/><path d="m32.9999 30.2104v8h-26.00002v-8zm-23.48147 3.2178v.4619h.39453v2.4786c0 .2093-.037.3777-.11035.5048-.07161.1289-.18733.2053-.34668.2286l.05176.373c.14486-.0036.27403-.03.38672-.0801.11259-.05.20729-.1208.28419-.2119.0787-.0895.1385-.1992.1797-.3281.0412-.1271.0625-.2704.0625-.4297v-2.9971zm6.32427-.083c-.154 0-.2912.0204-.4112.0615-.1198.0412-.2216.0986-.3056.1719-.0824.0716-.1467.1576-.1915.2578-.0428.1001-.0644.2093-.0644.3272 0 .179.0524.3292.1562.4492.1057.1181.267.215.4834.292l.5313.1992c.1396.0501.2386.1063.2959.1689.0591.0627.0889.139.0889.2286 0 .0589-.0145.1117-.043.1582-.0286.0465-.0681.0871-.1182.1211-.0483.0322-.1054.0573-.1699.0752-.0643.016-.1315.0244-.2012.0244-.0715 0-.1421-.0084-.2119-.0244-.068-.0162-.13-.0412-.1855-.0752-.0537-.034-.0979-.0782-.1319-.1319-.032-.0553-.0478-.1215-.0478-.1982h-.5557v.4619h.2793c.0734.1143.1777.2066.3135.2764.136.0698.3127.1044.5293.1045.1558 0 .2977-.0204.4248-.0616.127-.0393.2348-.0954.3242-.167.0913-.0734.1616-.1606.21-.2627.0501-.1037.0751-.2173.0752-.3408 0-.1843-.0527-.3431-.1582-.4756-.1057-.1324-.2738-.2374-.503-.3144l-.5341-.1875c-.1323-.0465-.2269-.0968-.2842-.1504-.0555-.0555-.084-.1305-.084-.2236.0001-.0535.012-.1017.0351-.1446.0251-.0447.0596-.0828.1026-.1132.0428-.0303.0936-.0533.1523-.0694.0609-.0161.1276-.0244.1993-.0244.0643 0 .1303.0084.1982.0244.0679.0143.1301.0383.1855.0723.0555.0322.1008.0752.1348.1289.0357.0518.0536.1154.0537.1904h.5498v-.4619h-.2597c-.1074-.1342-.2291-.2287-.3633-.2842-.1342-.0554-.3005-.083-.499-.083zm6.7705-.0058c-.1861 0-.3606.037-.5235.1103-.1629.0734-.306.175-.4277.3057-.1217.1288-.2173.2841-.2871.4648-.0698.1808-.1045.3789-.1045.5938 0 .2148.0334.4129.0996.5937.0662.1807.1583.3362.2764.4668.1199.1307.2609.2333.4238.3067.1646.0715.3439.1073.5371.1074.1323 0 .2579-.018.376-.0537.1199-.0341.2296-.084.3281-.1485.1001-.0644.1899-.1422.2686-.2334.0786-.0912.1445-.1941.1982-.3086l-.4131-.2041c-.0752.1612-.1766.284-.3037.3682-.127.0823-.2765.123-.4482.123-.1164 0-.2261-.0227-.3282-.0693-.1001-.0483-.1887-.1165-.2656-.2041-.0769-.0895-.1379-.197-.1826-.3223-.043-.1253-.0645-.2661-.0645-.4218 0-.1575.0216-.2997.0645-.4268.0447-.1289.1045-.2386.1797-.3281.0769-.0895.1665-.1587.2685-.207.1021-.0484.2118-.0723.3282-.0723.1521 0 .2858.0311.4003.0937.1164.0627.212.1617.2872.2959h.5048v-.4619h-.2822c-.118-.1234-.2557-.2155-.4131-.2763-.1557-.0609-.3216-.0918-.497-.0918zm2.9697.0166c-.2165 0-.4065.0382-.5694.1152-.1627.077-.2992.182-.4101.3144-.1092.1307-.1916.2847-.2471.462-.0554.1752-.0839.362-.084.5605 0 .2451.0324.4602.0967.6445.0662.1843.1571.3385.2715.462.1164.1235.2547.2166.4141.2792.1611.0627.3355.0948.5234.0948.1986 0 .3899-.031.5742-.0918.1844-.0609.3682-.154.5508-.2793l-.2012-.3408c-.1504.0859-.2947.1492-.4326.1904-.136.0394-.2769.0596-.4219.0596-.1842-.0001-.3494-.0454-.4961-.1348-.145-.0913-.2511-.2262-.3173-.4053-.0215-.0591-.0383-.1211-.0508-.1855-.0107-.0662-.0166-.1391-.0166-.2178h2.0039c0-.0661-.0023-.1344-.0059-.2041-.0018-.0696-.0067-.1383-.0156-.2061-.0179-.1396-.0501-.2768-.0967-.4111-.0447-.1342-.1117-.2536-.2012-.3574-.0876-.1055-.2024-.1893-.3437-.252-.1397-.0644-.3149-.0966-.5244-.0966zm-7.7881-.5938v.666h-.4482v.4053h.4433l-.0088 1.5312c0 .1754.0155.3224.0459.4405.0304.1162.0759.2095.1367.2793.0627.0697.1391.1188.2286.1474.0913.0305.1985.0459.3203.0459.1285 0 .2402-.0133.3349-.04.0949-.0251.1856-.0607.2715-.1055l-.1152-.3359c-.0681.0322-.1312.056-.1885.0703-.0572.0125-.1232.0185-.1982.0186-.0699 0-.133-.0121-.1885-.0372-.0554-.0268-.0951-.0746-.1201-.1425-.0251-.068-.0381-.1566-.0381-.2657l.0078-1.6064h.6582v-.4053h-.6523v-.8974zm-6.7188.666v.4619h.376v1.3291c0 .1809.0215.3371.0645.4678.0429.1305.1039.2384.1826.3242.0806.0842.1772.1473.29.1885.1145.0393.2414.0596.3809.0596.1682 0 .3259-.0274.4727-.0811.1486-.0537.2858-.1289.4111-.2256v.2578h.8105v-.4619h-.3086v-2.3203h-.8964v.4619h.373v1.6944c-.1074.0698-.222.1246-.3438.164-.1199.0394-.2345.0586-.3437.0586-.1844 0-.3263-.0538-.4248-.1631-.0984-.1091-.1474-.2705-.1475-.4834v-1.7324zm8.4268 0v.4619h.4033v1.8584h-.3974v.4619h1.3213v-.4619h-.419v-2.3203zm9.1934-.4678v1.126h-1.128v.4912h1.128v1.1328h.4882v-1.1328h1.1338v-.4912h-1.1338v-1.126zm-3.1475.8145c.1234 0 .2275.0179.3115.0537s.1525.0861.2061.1504.0931.14.1181.2275c.0269.0878.0446.1843.0518.2881h-1.4424c.0179-.1108.0444-.2113.0801-.3008.0376-.0895.0876-.1647.1484-.2255.0609-.0627.1339-.1104.2198-.1426.0877-.034.1902-.0508.3066-.0508zm-5.3848-1.6787c-.0481 0-.0938.0097-.1367.0293-.0429.0179-.081.043-.1133.0752-.0304.0304-.0555.0674-.0752.1103-.0178.0412-.0263.0853-.0263.1319 0 .0482.0085.0938.0263.1367.0197.0429.0449.0812.0752.1152.0323.0323.0704.0585.1133.0781.0429.0178.0886.0264.1367.0264.0465 0 .0908-.0085.1319-.0264.0428-.0196.079-.046.1094-.0781.0321-.034.0572-.0723.0751-.1152.0197-.0429.0303-.0885.0303-.1367 0-.0466-.0106-.0907-.0303-.1319-.0179-.0429-.0429-.0799-.0751-.1103-.0304-.0321-.0667-.0574-.1094-.0752-.0411-.0197-.0854-.0293-.1319-.0293zm-9.9961.0322c-.0446 0-.0867.0086-.1259.0264-.0376.0161-.071.0387-.09964.0674-.02862.0286-.05144.062-.06934.0996-.01611.0376-.02441.0781-.02441.1211.00004.0446.00834.0867.02441.1259.01787.0393.04081.0742.06934.1045.02865.0287.06204.0524.09964.0704.0393.016.0813.0234.1259.0234.043 0 .0835-.0073.1211-.0234.0394-.0179.073-.0418.1016-.0704.0286-.0304.0513-.0651.0674-.1045.0178-.0392.0273-.0813.0273-.1259 0-.043-.0094-.0835-.0273-.1211-.0161-.0376-.0388-.071-.0674-.0996s-.0623-.0513-.1016-.0674c-.0375-.0179-.0781-.0264-.1211-.0264z"/></g></svg>