<svg width="40" height="40" viewBox="0 0 40 40" fill="none" xmlns="http://www.w3.org/2000/svg">
<path d="M19.0625 14.6172C19.0859 14.5469 19.1562 14.5 19.25 14.5C19.3203 14.5 19.3906 14.5469 19.4141 14.6172L19.7422 15.5078L20.6328 15.8359C20.7031 15.8594 20.75 15.9297 20.75 16C20.75 16.0938 20.7031 16.1641 20.6328 16.1875L19.7422 16.5156L19.4141 17.3828C19.3906 17.4531 19.3203 17.5 19.25 17.5C19.1562 17.5 19.0859 17.4531 19.0625 17.3828L18.7344 16.5156L17.8438 16.1875C17.7734 16.1641 17.75 16.0938 17.75 16C17.75 15.9297 17.7734 15.8594 17.8438 15.8359L18.7344 15.5078L19.0625 14.6172ZM23.2578 14.8516C23.7031 14.4062 24.4062 14.4062 24.8516 14.8516L25.6484 15.6484C26.0938 16.0938 26.0938 16.7969 25.6484 17.2422L16.7188 26.1719C16.2734 26.6172 15.5703 26.6172 15.125 26.1719L14.3281 25.375C13.8828 24.9297 13.8828 24.2266 14.3281 23.7812L23.2578 14.8516ZM24.0547 15.9062L21.5938 18.3672L22.1328 18.9062L24.5938 16.4453L24.0547 15.9062ZM13.4141 17.2656L14.75 16.75L15.2422 15.4375C15.2656 15.3203 15.3828 15.25 15.5 15.25C15.5938 15.25 15.7109 15.3203 15.7344 15.4375L16.25 16.75L17.5625 17.2656C17.6797 17.2891 17.75 17.4062 17.75 17.5C17.75 17.6172 17.6797 17.7344 17.5625 17.7578L16.25 18.25L15.7344 19.5859C15.7109 19.6797 15.5938 19.75 15.5 19.75C15.3828 19.75 15.2656 19.6797 15.2422 19.5859L14.75 18.25L13.4141 17.7578C13.2969 17.7344 13.25 17.6172 13.25 17.5C13.25 17.4062 13.2969 17.2891 13.4141 17.2656ZM21.6641 23.2656L23 22.75L23.4922 21.4375C23.5156 21.3203 23.6328 21.25 23.75 21.25C23.8438 21.25 23.9609 21.3203 23.9844 21.4375L24.5 22.75L25.8125 23.2656C25.9297 23.2891 26 23.4062 26 23.5C26 23.6172 25.9297 23.7344 25.8125 23.7578L24.5 24.25L23.9844 25.5859C23.9609 25.6797 23.8438 25.75 23.75 25.75C23.6328 25.75 23.5156 25.6797 23.4922 25.5859L23 24.25L21.6641 23.7578C21.5469 23.7344 21.5 23.6172 21.5 23.5C21.5 23.4062 21.5469 23.2891 21.6641 23.2656Z" fill="#0D46A8"/>
</svg>
