<svg width="38" height="38" viewBox="0 0 38 38" fill="none" xmlns="http://www.w3.org/2000/svg">
<path d="M38 4C38 1.79086 36.2091 0 34 0H4C1.79086 0 0 1.79086 0 4V34C0 36.2091 1.79086 38 4 38H34C36.2091 38 38 36.2091 38 34V4Z" fill="white"/>
<path d="M14.0792 8.11126V8.54601H14.8749V8.11126H14.0792Z" fill="#0D46A8"/>
<path d="M14.0792 23.773V24.2078H19.4602V22.202H19.0581V23.773H14.0792Z" fill="#0D46A8"/>
<path d="M17.7978 21.3734V16.0212H20.7397C21.5126 16.0212 22.2125 15.8968 22.8396 15.648C23.4739 15.3992 24.0171 15.061 24.4692 14.6334C24.9213 14.2058 25.2712 13.7083 25.5191 13.1408C25.767 12.5655 25.891 11.9551 25.891 11.3098C25.891 10.5324 25.7633 9.84437 25.5082 9.24572C25.3753 8.92468 25.2119 8.63271 25.0182 8.36982C25.0431 8.42406 25.0672 8.47913 25.0903 8.53502C25.3578 9.16288 25.489 9.87867 25.489 10.6782C25.489 11.3507 25.3596 11.9886 25.1005 12.5899L25.1001 12.5908C24.8414 13.1832 24.4759 13.7025 24.0052 14.1477C23.5338 14.5936 22.9697 14.9441 22.3157 15.2006C21.6643 15.459 20.9413 15.5865 20.1491 15.5865H17.3957V21.3734H17.7978Z" fill="#0D46A8"/>
<path d="M22.1029 12.6175C22.3347 12.4057 22.5152 12.1397 22.6433 11.8158L22.644 11.8142L22.6448 11.8125C22.7783 11.4919 22.8478 11.1153 22.8478 10.6782C22.8478 10.3815 22.8178 10.1117 22.7587 9.86765C22.6992 9.78585 22.6336 9.71043 22.562 9.64089L22.5606 9.63955L22.5593 9.63822C22.1904 9.27387 21.5441 9.03824 20.51 9.03824H18.2693V13.2801H20.1928C20.5912 13.2801 20.9498 13.2244 21.2707 13.1153C21.5985 12.9987 21.8741 12.8327 22.1008 12.6194L22.1029 12.6175Z" fill="#0D46A8"/>
<path d="M17.7978 13.2801V8.54601H20.51C21.1917 8.54601 21.7571 8.64243 22.2062 8.83525C22.1925 8.82103 22.1784 8.80701 22.1642 8.79314L22.1631 8.79209C21.718 8.35246 20.9849 8.11126 19.9194 8.11126H17.3957V13.2801H17.7978Z" fill="#0D46A8"/>
<path d="M14.7964 31.7899V30.4621H15.4867C15.7632 30.4621 15.9645 30.5206 16.0906 30.6375C16.2168 30.7525 16.2799 30.9139 16.2799 31.1218C16.2799 31.2312 16.2613 31.3278 16.2242 31.4113C16.1889 31.4947 16.1389 31.5643 16.0739 31.62C16.0108 31.6755 15.9347 31.7183 15.8457 31.748C15.7585 31.7759 15.662 31.7899 15.5562 31.7899H14.7964Z" fill="#0D46A8"/>
<path d="M18.3367 31.7899V30.4621H19.0798C19.3543 30.4621 19.5548 30.5206 19.681 30.6375C19.8071 30.7543 19.8702 30.9177 19.8702 31.1273C19.8702 31.2369 19.8517 31.3333 19.8145 31.4168C19.7793 31.4984 19.7292 31.5671 19.6642 31.6227C19.6012 31.6784 19.5251 31.7202 19.436 31.748C19.3488 31.7759 19.2523 31.7899 19.1466 31.7899H18.3367Z" fill="#0D46A8"/>
<path d="M23.8725 33.6294C23.6943 33.7203 23.4948 33.7659 23.274 33.7659C23.0533 33.7659 22.8557 33.7203 22.6812 33.6294C22.5087 33.5385 22.3593 33.4264 22.2331 33.2928C22.1089 33.1572 22.0086 32.9884 21.9326 32.7861C21.8565 32.5822 21.8185 32.35 21.8185 32.0904C21.8185 31.8678 21.8528 31.6552 21.9214 31.453C21.9901 31.2489 22.0875 31.0708 22.2137 30.9186C22.3398 30.7646 22.493 30.6422 22.6729 30.5512C22.8529 30.4603 23.0533 30.4148 23.274 30.4148C23.467 30.4148 23.6526 30.4557 23.8307 30.5373C24.0089 30.6171 24.1647 30.7312 24.2982 30.8797C24.4337 31.028 24.5386 31.2099 24.6128 31.4251C24.6889 31.6385 24.7269 31.8601 24.7269 32.0904C24.7269 32.3149 24.6926 32.5283 24.6239 32.7304C24.5553 32.9327 24.4578 33.111 24.3317 33.2649C24.2055 33.4169 24.0525 33.5385 23.8725 33.6294Z" fill="#0D46A8"/>
<path fill-rule="evenodd" clip-rule="evenodd" d="M38 4C38 1.79086 36.2091 0 34 0H4C1.79086 0 0 1.79086 0 4V34C0 36.2091 1.79086 38 4 38H34C36.2091 38 38 36.2091 38 34V4ZM13.3 5.7H20.1928C20.9531 5.7 21.6543 5.80722 22.295 6.02404C22.6914 6.15195 23.0556 6.31946 23.387 6.52701C23.8963 6.73813 24.3523 7.0205 24.7509 7.3764C25.2683 7.82388 25.6646 8.38388 25.9399 9.04793C26.2259 9.71964 26.3625 10.4771 26.3625 11.3098C26.3625 12.0231 26.225 12.7024 25.9492 13.3427L25.9482 13.3449C25.6731 13.9747 25.2843 14.5266 24.7858 14.9982C24.2853 15.4716 23.6897 15.8403 23.0062 16.1085C22.3184 16.3812 21.5609 16.5135 20.7397 16.5135H18.2693V21.3734H19.0581V21.7097H19.9317V24.7H13.6077V23.773H13.3V21.3734H14.8749V9.03824H13.6077V8.11126H13.3V5.7ZM15.5562 29.9807H13.8501V30.4621H14.2509V33.7212H13.8501V34.2H15.2195V33.7212H14.7964V32.2462H15.5451C15.7418 32.2462 15.9199 32.2164 16.0795 32.1572C16.2409 32.0977 16.3791 32.0169 16.4942 31.9149C16.6092 31.813 16.6982 31.6942 16.7614 31.5587C16.8245 31.4214 16.856 31.2758 16.856 31.1218C16.856 30.9363 16.8236 30.772 16.7586 30.6291C16.6955 30.4863 16.6055 30.3675 16.4886 30.2729C16.3736 30.1764 16.2363 30.1041 16.0768 30.0558C15.919 30.0058 15.7455 29.9807 15.5562 29.9807ZM19.1466 29.9807H17.3904V30.4621H17.7911V33.7212H17.3904V34.2H18.7597V33.7212H18.3367V32.2462H18.8794C19.0835 32.2462 19.244 32.3009 19.3609 32.4105C19.4797 32.5182 19.5678 32.687 19.6253 32.9169L19.9398 34.2H20.7608L20.7553 33.6712H20.3907L20.1569 32.7528C20.1365 32.673 20.1087 32.5989 20.0734 32.5302C20.04 32.4596 20.002 32.3975 19.9593 32.3437C19.9185 32.288 19.8739 32.2417 19.8256 32.2044C19.7793 32.1654 19.7329 32.1357 19.6866 32.1154C19.796 32.0783 19.8971 32.0255 19.9899 31.9567C20.0826 31.888 20.1624 31.8101 20.2292 31.723C20.2979 31.6339 20.3508 31.5383 20.3879 31.4363C20.4269 31.3323 20.4464 31.2275 20.4464 31.1218C20.4464 30.9363 20.4139 30.772 20.3489 30.6291C20.284 30.4863 20.1931 30.3675 20.0762 30.2729C19.9611 30.1764 19.8238 30.1041 19.6642 30.0558C19.5065 30.0058 19.334 29.9807 19.1466 29.9807ZM22.4753 34.1221C22.7165 34.2298 22.9828 34.2836 23.274 34.2836C23.5709 34.2836 23.8428 34.2269 24.0895 34.1139C24.3381 33.9986 24.5516 33.8419 24.7296 33.6433C24.9097 33.4447 25.0488 33.2129 25.1472 32.9476C25.2474 32.6803 25.2975 32.3947 25.2975 32.0904C25.2975 31.786 25.2482 31.5003 25.1499 31.2332C25.0516 30.9659 24.9134 30.734 24.7352 30.5373C24.5571 30.3387 24.3438 30.1829 24.0951 30.0697C23.8465 29.9546 23.5728 29.8972 23.274 29.8972C22.9772 29.8972 22.7044 29.9546 22.4558 30.0697C22.209 30.1829 21.9956 30.3387 21.8157 30.5373C21.6376 30.734 21.4984 30.9659 21.3982 31.2332C21.2999 31.5003 21.2506 31.786 21.2506 32.0904C21.2506 32.3852 21.2999 32.6702 21.3982 32.9447C21.4965 33.2193 21.6403 33.4568 21.8296 33.6572C22.0188 33.8577 22.2341 34.0125 22.4753 34.1221Z" fill="#0D46A8"/>
</svg>
